<?xml version="1.0" encoding="UTF-8"?><svg id="Layer_1" xmlns="http://www.w3.org/2000/svg" viewBox="0 0 512 512"><defs><style>.cls-1,.cls-2,.cls-3{stroke-width:0px;}.cls-2{fill:#58595b;}.cls-3{fill:#fff;}</style></defs><rect class="cls-3" x="4.73" y="4.73" width="502.54" height="502.54" rx="58.8" ry="58.8"/><path class="cls-1" d="m469.56,229.79c-.35-.37-5.05-3.62-4.03-1.7,12.61,23.75,2.55,31.07-14.15,39.65-2.57,1.32-5.31,2.3-8.15,2.86-11.03,2.17-32.71,2.74-63.26-20.44-7.67-5.11-19.83-18.02-20.07-18.42,1.15-.96,2.32-1.88,3.42-2.87,15.27-13.75,26.19-37.12,27.68-54.59.94-10.98.07-21.72-2.51-32.42-10.98-45.47,1.58-56.42,7.55-63.65,3.34-4.04,7.97-6.13,12.92-6.97,22.71-3.81,33.09,13.42,36.84,18.45,2.45,3.29,10.23,15.03,12.86,19.12.62.96,1.61,1.07,2.48.48.84-.57,2.34-.65,2-2.31-.81-3.97-4.35-22.99-22.04-37.14-3.39-2.71-7.2-4.8-10.98-6.9-5.15-2.86-30.22-12.57-47.36,9.84-3.13,4.09-16.32,22.53-16.44,56.49-.2,58.37-22.26,68.45-24.32,69.34-.86-.77-.36-1.51-.16-2.16,3.04-9.83,4.42-19.9,4.57-30.16.54-38.83-32.68-62.53-60.25-70.86-17.65-5.33-40.13-4.93-58.07-.63-27.01,6.47-63.11,27.05-62.5,71.5.14,10.26,1.53,20.34,4.57,30.16.2.65.7,1.39-.16,2.16-2.06-.9-24.11-10.97-24.32-69.34-.12-33.96-13.31-52.4-16.44-56.49-17.14-22.41-42.22-12.7-47.36-9.84-3.78,2.1-7.58,4.18-10.98,6.9-17.68,14.15-21.23,33.16-22.04,37.14-.34,1.66,1.17,1.74,2,2.31.87.59,1.86.48,2.48-.48,2.63-4.09,10.4-15.83,12.86-19.12,3.75-5.03,14.13-22.26,36.84-18.45,4.95.83,9.58,2.92,12.92,6.97,5.97,7.23,18.53,18.18,7.55,63.65-2.58,10.7-3.45,21.45-2.51,32.42,1.49,17.47,12.41,40.84,27.68,54.59,1.1.99,2.27,1.91,3.42,2.87-.24.4-12.4,13.31-20.07,18.42-30.56,23.19-52.24,22.62-63.26,20.44-2.84-.56-5.58-1.54-8.15-2.86-16.7-8.58-26.76-15.9-14.15-39.65,1.02-1.92-3.68,1.33-4.03,1.7-3.66,3.86-8.95,14.34-6.85,24.46,2.08,9.93,7.35,16.21,16.04,21.38,8.23,4.9,38.19,17.42,70.59,3.81,4.04-1.7,8.2-3.09,12.34-4.63.21.89-9.77,22.52-10.75,25.07-7.75,20.2-7.95,37.56-.71,50.82,4.06,7.44,8.33,14.76,12.55,22.12,4.09,7.15,3.35,14.15-.84,20.88-4.47,7.2-11.54,11.19-18.96,14.64-2.54,1.18-5.9,1.49-5.71,3.79.2,2.46,2.5,2.05,8.16.99,7.94-1.48,14.66-5.35,20.52-10.74,7.78-7.16,11.87-16.07,11.22-26.7-.47-7.63-3.29-14.64-7.1-21.24-.98-1.7-9.8-20.77-.8-34.32,3.11-4.68,17.57-30.19,21.86-33.78.28-.23-.25,6.55-.77,9.97-1.59,10.61-.06,20.69,4.71,30.32,3.12,6.3,6.93,12.15,11.23,17.68,7.9,10.14,7.59,10.5,15.92,20.29,4.8,5.65,8.83,11.76,12.72,18.03,7.94,12.79,16.44,33.88,6.12,49.38-14.51,24.44-32.46,14.51-42.39,12.6-1.49,4.88,2.06,6.16,10.56,8.01,13.92,3.02,25.7-.61,34.74-11.73,6.39-7.86,9.53-17.14,10.07-27.21.66-12.3.4-25.55-15.55-51.8-4.52-7.12-7.7-11.98-10.13-17.22-4.53-8.73-7.04-18.66-6.9-29.2.44-33.04,27.32-60.14,60.35-60.83,34.68-.73,63.02,27.16,63.02,61.68,0,10.23-2.5,19.86-6.91,28.36-2.43,5.24-5.61,10.1-10.13,17.22-15.94,26.25-16.21,39.5-15.55,51.8.54,10.08,3.68,19.35,10.07,27.21,9.04,11.12,20.82,14.75,34.74,11.73,8.5-1.85,12.05-3.13,10.56-8.01-9.93,1.91-27.88,11.84-42.39-12.6-10.32-15.5-1.82-36.59,6.12-49.38,3.89-6.27,7.91-12.38,12.72-18.03,8.33-9.79,8.01-10.15,15.92-20.29,4.31-5.53,8.11-11.38,11.23-17.68,4.77-9.63,6.3-19.71,4.71-30.32-.52-3.43-1.04-10.21-.77-9.97,4.28,3.58,18.75,29.1,21.86,33.78,9,13.56.18,32.62-.8,34.32-3.82,6.6-6.64,13.62-7.1,21.24-.65,10.63,3.45,19.54,11.22,26.7,5.85,5.39,12.58,9.25,20.52,10.74,5.66,1.06,7.96,1.47,8.16-.99.19-2.3-3.17-2.6-5.71-3.79-7.42-3.45-14.49-7.45-18.96-14.64-4.19-6.73-4.93-13.73-.84-20.88,4.21-7.36,8.48-14.68,12.55-22.12,7.24-13.26,7.04-30.62-.71-50.82-.98-2.55-10.96-24.18-10.75-25.07,4.13,1.54,8.3,2.94,12.34,4.63,32.39,13.61,62.35,1.09,70.59-3.81,8.69-5.17,13.96-11.45,16.04-21.38,2.1-10.12-3.2-20.6-6.85-24.46Zm-236.35-22.46c-5.9,0-10.69-4.79-10.69-10.69s4.79-10.69,10.69-10.69,10.69,4.79,10.69,10.69-4.79,10.69-10.69,10.69Zm45.58,0c-5.91,0-10.69-4.79-10.69-10.69s4.79-10.69,10.69-10.69,10.69,4.79,10.69,10.69-4.79,10.69-10.69,10.69Z"/><path class="cls-2" d="m276.51,293.46c-1.33.72-2.53,1.64-3.65,2.67-2.73,2.5-5.11,5.3-7.25,8.31-4.28,6.02-7.88,12.43-10.98,19.14-.38.83-.53,1.82-1.52,2.49-.41-.62-.85-1.2-1.18-1.83-1.46-2.86-2.91-5.72-4.32-8.6-1.57-3.23-3.04-6.5-4.62-9.72-.71-1.44-1.53-2.26-2.87-3.23-2.02-1.47-3.8-.9-5.47.76-2.16,2.42,1.53,10.54,2.89,13.47,2.94,6.34,5.95,12.65,9.85,18.47.89,1.33,1.78,2.68,2.96,3.78,3.4,3.18,7.64,2.16,9.23-2.18,4.59-12.59,17.44-32.05,19.45-35.03.84-1.25,1.66-2.53,2.32-3.88.93-1.87.73-3.39-.38-4.45-1.11-1.06-2.66-1.15-4.46-.18Z"/><path class="cls-2" d="m256,261.3c-30.41,0-55.06,24.65-55.06,55.06s24.65,55.06,55.06,55.06,55.06-24.65,55.06-55.06-24.65-55.06-55.06-55.06Zm0,97.96c-22.75,0-41.36-17.71-42.8-40.1h3.97c1.09,0,1.97-.88,1.97-1.97v-1.66c0-1.09-.88-1.97-1.97-1.97h-3.97c1.38-21.34,18.35-38.43,39.65-39.97v4.15c0,1.09.88,1.97,1.97,1.97h1.66c1.09,0,1.97-.88,1.97-1.97v-4.21c22.55,1.27,40.45,19.96,40.45,42.83s-19.21,42.9-42.9,42.9Z"/></svg>